<?xml version="1.0" standalone="no"?>
<!DOCTYPE svg PUBLIC "-//W3C//DTD SVG 20010904//EN"
 "http://www.w3.org/TR/2001/REC-SVG-20010904/DTD/svg10.dtd">
<svg version="1.0" xmlns="http://www.w3.org/2000/svg"
 width="596.000000pt" height="681.000000pt" viewBox="0 0 596.000000 681.000000"
 preserveAspectRatio="xMidYMid meet">

<g transform="translate(0.000000,681.000000) scale(0.100000,-0.100000)"
fill="#000000" stroke="none">
<path d="M2771 6434 c-362 -52 -724 -263 -946 -549 -144 -186 -232 -369 -291
-605 -27 -109 -29 -126 -29 -335 0 -207 2 -226 28 -330 77 -305 193 -513 406
-726 182 -181 337 -279 577 -362 341 -119 742 -104 1077 39 377 162 688 495
825 885 62 177 77 272 77 499 0 191 -2 213 -28 323 -31 128 -72 248 -113 330
-226 450 -653 764 -1134 832 -128 18 -322 18 -449 -1z m429 -249 c398 -64 741
-317 924 -683 88 -174 126 -342 126 -548 0 -276 -69 -496 -230 -734 -94 -140
-294 -311 -465 -397 -72 -37 -236 -91 -335 -110 -122 -24 -336 -21 -462 6
-293 62 -512 190 -708 414 -124 141 -208 303 -267 512 -30 109 -43 362 -24
484 42 269 165 513 353 698 109 107 131 126 218 180 262 163 570 226 870 178z"/>
<path d="M1925 3213 c-561 -75 -1006 -384 -1248 -868 -141 -281 -171 -482
-165 -1100 3 -367 4 -382 27 -446 41 -117 134 -214 251 -262 l55 -22 2115 -3
c1550 -2 2131 0 2175 8 158 31 282 145 331 305 17 54 19 102 18 500 0 369 -3
458 -18 550 -107 673 -585 1176 -1251 1317 l-110 23 -1075 1 c-591 1 -1088 0
-1105 -3z m2261 -271 c238 -57 430 -153 596 -299 229 -201 381 -472 432 -772
13 -77 16 -177 16 -540 0 -443 0 -446 -23 -485 -14 -25 -39 -48 -66 -63 l-44
-23 -2096 0 c-2037 0 -2097 1 -2138 19 -26 12 -52 35 -70 62 l-28 42 -3 346
c-5 499 12 676 83 873 129 358 438 667 788 788 90 31 233 66 302 73 22 2 517
3 1100 3 1054 -2 1061 -2 1151 -24z"/>
</g>
</svg>
